<mxfile host="app.diagrams.net" modified="2023-09-28T17:51:03.665Z" agent="Mozilla/5.0 (X11; Linux x86_64; rv:109.0) Gecko/20100101 Firefox/114.0" version="22.0.0" etag="xglmU_0kSyc_FDP_amfI" type="github">
  <diagram name="PÃ¡gina-1" id="cV4Safwn8wtwLSzP_gru">
    <mxGraphModel>
      <root>
        <mxCell id="0" />
        <mxCell id="1" parent="0" />
      </root>
    </mxGraphModel>
  </diagram>
</mxfile>
